<svg xmlns="http://www.w3.org/2000/svg" width="86.11" height="55.837" viewBox="0 0 86.11 55.837">
  <path id="Path_2151" data-name="Path 2151" d="M84.428,52.473A9.676,9.676,0,0,1,77.382,49.4a1.669,1.669,0,0,0-2.455,0,9.589,9.589,0,0,1-5.214,2.91L74.775,34.36a1.666,1.666,0,0,0-1.009-2.018l-4.81-1.85V22.537a7.063,7.063,0,0,0-7.064-7.064H60.883V6a6.008,6.008,0,0,0-6-6H31.232a6.008,6.008,0,0,0-6,6v9.469H24.219a7.063,7.063,0,0,0-7.064,7.064v7.921l-4.81,1.85a1.682,1.682,0,0,0-1.009,2.018L16.4,52.305a9.589,9.589,0,0,1-5.214-2.91,1.669,1.669,0,0,0-2.455,0,9.612,9.612,0,0,1-7.047,3.078,1.682,1.682,0,1,0,0,3.364,12.981,12.981,0,0,0,8.275-2.994,12.933,12.933,0,0,0,16.549,0,12.933,12.933,0,0,0,16.549,0,12.933,12.933,0,0,0,16.549,0,12.933,12.933,0,0,0,16.549,0,12.981,12.981,0,0,0,8.275,2.994,1.682,1.682,0,0,0,0-3.364Zm-53.2-49.11H54.878A2.634,2.634,0,0,1,57.519,6V7.736H49.951a1.682,1.682,0,1,0,0,3.364h7.568v4.373H28.591V11.1H36.16a1.682,1.682,0,1,0,0-3.364H28.591V6A2.634,2.634,0,0,1,31.232,3.364ZM20.518,22.537a3.711,3.711,0,0,1,3.7-3.7H61.892a3.711,3.711,0,0,1,3.7,3.7v6.626L43.661,20.7a1.671,1.671,0,0,0-1.211,0l-21.931,8.46ZM55.736,40.583l12.429,4.793L66.2,52.322A9.758,9.758,0,0,1,60.832,49.4a1.669,1.669,0,0,0-2.455,0,9.58,9.58,0,0,1-13.64.437V38.363a1.682,1.682,0,0,0-3.364,0v11.47a9.58,9.58,0,0,1-13.64-.437,1.669,1.669,0,0,0-2.455,0,9.553,9.553,0,0,1-5.365,2.926l-1.968-6.963,12.21-4.709a1.677,1.677,0,0,0-1.211-3.128L17.037,42.113,15,34.9,43.055,24.084,71.125,34.9,69.09,42.113,56.964,37.438a1.688,1.688,0,0,0-1.228,3.145ZM41.373,9.418A1.682,1.682,0,1,1,43.055,11.1,1.687,1.687,0,0,1,41.373,9.418Zm3.364,22.2a1.682,1.682,0,1,1-1.682-1.682A1.687,1.687,0,0,1,44.737,31.619Z" fill="#09f"/>
</svg>
