<svg xmlns="http://www.w3.org/2000/svg" width="71.73" height="61.527" viewBox="0 0 71.73 61.527">
  <path id="Path_2228" data-name="Path 2228" d="M17.02,85.818c0,.012,0,.025,0,.037a1.76,1.76,0,0,1-1.76,1.76H11.318a1.76,1.76,0,0,1,0-3.52H13.5V75.439a1.76,1.76,0,0,1,3.52,0ZM12.428,32.475a6.386,6.386,0,1,1,6.385,6.385A6.393,6.393,0,0,1,12.428,32.475Zm3.52,0a2.866,2.866,0,1,0,2.865-2.865A2.868,2.868,0,0,0,15.948,32.475ZM17.021,56.6V52.731a1.76,1.76,0,1,0-3.52,0V56.35L9.957,68.691A1.761,1.761,0,0,0,11,70.861a1.725,1.725,0,0,0,.22.069,1.758,1.758,0,0,0,.417.05h14.3a1.762,1.762,0,0,0,1.776-2.128q-.016-.073-.037-.144L24.126,56.35V52.731a1.76,1.76,0,0,0-3.52,0V56.6a1.76,1.76,0,0,0,.068.486l2.979,10.376h-9.68l2.979-10.377A1.763,1.763,0,0,0,17.021,56.6ZM46.532,32.475a6.385,6.385,0,1,1,6.385,6.385A6.393,6.393,0,0,1,46.532,32.475Zm3.52,0a2.865,2.865,0,1,0,2.865-2.865A2.868,2.868,0,0,0,50.052,32.475ZM60.413,84.1H58.23V71.9a1.76,1.76,0,0,0-3.52,0V85.855a1.76,1.76,0,0,0,1.76,1.76h3.943a1.76,1.76,0,1,0,0-3.52ZM71.6,64.971,65.75,50.55c-1.545-3.806-4.324-8.866-10.6-8.866H50.683c-6.273,0-9.052,5.06-10.6,8.867l-4.221,10.4-4.221-10.4c-1.545-3.806-4.323-8.866-10.6-8.866H16.579c-6.273,0-9.052,5.06-10.6,8.867L.13,64.971a1.76,1.76,0,1,0,3.262,1.324L9.243,51.874c1.9-4.676,4.092-6.67,7.336-6.67h4.469c3.244,0,5.438,1.995,7.335,6.67l5.851,14.422a1.756,1.756,0,0,0,.4.594h0a1.75,1.75,0,0,0,.53.357l0,0h0c.03.013.061.025.092.037h0a1.644,1.644,0,0,0,.607.107,1.759,1.759,0,0,0,1.613-1.066h0l0,0,.014-.034,5.85-14.417c1.9-4.675,4.091-6.67,7.335-6.67h4.469c3.245,0,5.439,1.995,7.336,6.67l5.851,14.421A1.76,1.76,0,1,0,71.6,64.971ZM26.309,84.1H24.126V75.439a1.76,1.76,0,1,0-3.52,0V85.855a1.76,1.76,0,0,0,1.76,1.76h3.943a1.76,1.76,0,0,0,0-3.52ZM49.365,70.14A1.76,1.76,0,0,0,47.6,71.9V84.1H45.422a1.76,1.76,0,1,0,0,3.52h3.943a1.76,1.76,0,0,0,1.76-1.76h0V71.9A1.76,1.76,0,0,0,49.365,70.14ZM48.07,50.972a1.76,1.76,0,0,0-1.76,1.76v12.9h0a1.764,1.764,0,0,0,1.8,1.76h9.659a1.76,1.76,0,0,0,1.76-1.76v-12.9a1.76,1.76,0,1,0-3.52,0V63.873H49.83V52.732A1.76,1.76,0,0,0,48.07,50.972Z" transform="translate(0 -26.089)" fill="#09f"/>
</svg>
