<svg xmlns="http://www.w3.org/2000/svg" width="91.961" height="62" viewBox="0 0 91.961 62">
  <g id="Group_739" data-name="Group 739" transform="translate(-430 -863)">
    <g id="Group_649" data-name="Group 649" transform="translate(430 863)">
      <g id="Group_648" data-name="Group 648">
        <path id="Path_2226" data-name="Path 2226" d="M89.171,105.209l2.689-7.064A1.591,1.591,0,0,0,90.268,96l-.1-.127L70.891,97.3,59.4,81.393a1.591,1.591,0,0,0-1.289-.668H45.134v-3.8a1.591,1.591,0,0,0-3.182,0v3.786H37.911a1.591,1.591,0,0,0-1.352.764L30.307,91.655H25.868a1.591,1.591,0,0,0-1.416.859l-7.143,13.6-2.02.1a1.591,1.591,0,0,0-1.336.843L7.764,118.637a1.591,1.591,0,0,0-1.034,1.48c.016,1.973-2.339,3.707-5.139,3.707a1.591,1.591,0,1,0,0,3.182,8.973,8.973,0,0,0,6.745-2.848A8.973,8.973,0,0,0,15.066,127a8.973,8.973,0,0,0,6.745-2.848A8.973,8.973,0,0,0,28.557,127a8.973,8.973,0,0,0,6.745-2.848,9.4,9.4,0,0,0,13.3.179q.091-.089.179-.179a9.4,9.4,0,0,0,13.3.179q.091-.089.179-.179a9.4,9.4,0,0,0,13.3.179q.091-.089.179-.179A8.973,8.973,0,0,0,82.536,127c4.6,0,8.336-3.055,8.336-6.825a1.591,1.591,0,1,0-3.182,0c-.08,1.909-2.434,3.643-5.155,3.643h-.652a1.589,1.589,0,0,0,.1-.159Zm-1.257-5.982L86.5,102.982l-43.957,1.989,1.273-2.466ZM67.168,97.573,50.146,98.846V92h13ZM38.8,83.891H57.3l3.564,4.932h-12.3a1.591,1.591,0,0,0-1.591,1.591v8.67l-2.625.191v-6.03a1.591,1.591,0,0,0-1.591-1.591H34.03ZM26.855,94.837H41.173V100.6l-2.339,4.534-17.85.811Zm52.086,27.571a1.6,1.6,0,0,0,0,.3,3.182,3.182,0,0,1-1.591-2.577,1.591,1.591,0,0,0-3.182,0c0,1.973-2.355,3.643-5.155,3.643s-5.155-1.591-5.155-3.643a1.591,1.591,0,0,0-3.182,0c-.016,1.957-2.37,3.691-5.186,3.691s-5.155-1.591-5.155-3.643a1.591,1.591,0,1,0-3.182,0c0,1.973-2.355,3.643-5.155,3.643s-5.155-1.591-5.155-3.643a1.591,1.591,0,0,0-3.182,0c0,1.973-2.355,3.643-5.155,3.643s-5.155-1.591-5.155-3.643a1.591,1.591,0,0,0-3.182,0c0,1.973-2.355,3.643-5.155,3.643a5.2,5.2,0,0,1-4.964-2.752l6.268-11.677,68.855-3.182Z" transform="translate(0 -75.332)" fill="#09f"/>
      </g>
    </g>
    <g id="Group_651" data-name="Group 651" transform="translate(450.172 916.566)">
      <g id="Group_650" data-name="Group 650">
        <path id="Path_2227" data-name="Path 2227" d="M157.011,344.693h-.016a1.591,1.591,0,0,0-1.591,1.591c0,1.973-2.355,3.643-5.155,3.643s-5.155-1.591-5.155-3.643a1.591,1.591,0,0,0-3.182,0c0,1.973-2.355,3.643-5.155,3.643s-5.155-1.591-5.155-3.643a1.591,1.591,0,0,0-3.182,0c0,1.973-2.355,3.643-5.155,3.643s-5.155-1.591-5.155-3.643a1.591,1.591,0,1,0-3.182,0c0,1.973-2.355,3.643-5.155,3.643s-5.155-1.591-5.155-3.643a1.591,1.591,0,0,0-3.182,0c0,3.77,3.739,6.825,8.336,6.825a8.973,8.973,0,0,0,6.777-2.832,9.4,9.4,0,0,0,13.3.179q.091-.089.179-.179a9.4,9.4,0,0,0,13.3.179q.091-.089.179-.179a8.973,8.973,0,0,0,6.745,2.848c4.6,0,8.336-3.055,8.336-6.825A1.591,1.591,0,0,0,157.011,344.693Z" transform="translate(-101.44 -344.693)" fill="#09f"/>
      </g>
    </g>
  </g>
</svg>
