<svg id="Group_647" data-name="Group 647" xmlns="http://www.w3.org/2000/svg" width="64.924" height="64.944" viewBox="0 0 64.924 64.944">
  <g id="Group_646" data-name="Group 646" transform="translate(0 0)">
    <path id="Path_2220" data-name="Path 2220" d="M446.6,247.9a1.268,1.268,0,0,0-1.268,1.268,30.3,30.3,0,0,1-6.5,18.7,1.268,1.268,0,1,0,1.99,1.572,32.848,32.848,0,0,0,7.041-20.276A1.268,1.268,0,0,0,446.6,247.9Z" transform="translate(-382.945 -216.459)" fill="#09f"/>
    <path id="Path_2221" data-name="Path 2221" d="M419.728,423.363l-.055.055a1.283,1.283,0,1,0,.055-.055Z" transform="translate(-366.141 -369.349)" fill="#09f"/>
    <path id="Path_2222" data-name="Path 2222" d="M121.324,6.749a1.262,1.262,0,0,0,.633-.17,30.221,30.221,0,0,1,15.089-4.044,1.268,1.268,0,1,0,0-2.536,32.758,32.758,0,0,0-16.357,4.383,1.268,1.268,0,0,0,.635,2.367Z" transform="translate(-104.837 0.001)" fill="#09f"/>
    <path id="Path_2223" data-name="Path 2223" d="M42.732,383.546A30.219,30.219,0,0,1,31.685,372.5a1.268,1.268,0,1,0-2.2,1.268,32.758,32.758,0,0,0,11.975,11.974,1.268,1.268,0,0,0,1.268-2.2Z" transform="translate(-25.61 -324.697)" fill="#09f"/>
    <path id="Path_2224" data-name="Path 2224" d="M98.567,163.025a1.274,1.274,0,1,0,.518,1.792c.016-.027.035-.062.049-.09A1.268,1.268,0,0,0,98.567,163.025Z" transform="translate(-84.467 -142.229)" fill="#09f"/>
    <path id="Path_2225" data-name="Path 2225" d="M53.933,83.194a22.785,22.785,0,0,0,1.193-7.283,23.087,23.087,0,0,0-.4-4.282A6.864,6.864,0,0,0,56.7,70.367c2.9-2.677,3.642-8.41,1.719-13.335-1.877-4.8-5.719-7.56-10.542-7.56-5.894,0-11.529,3.418-15.866,9.623a34.092,34.092,0,0,0-5.675,13.994c-.254-.527-.5-1.061-.755-1.594-.446-.951-.908-1.934-1.381-2.865-3.174-6.25-5.651-10.068-8.916-11.086a7.327,7.327,0,0,0-2.182-.317c-4.2,0-9,3.048-11.425,7.248A10.769,10.769,0,0,0,1.6,75.632a17.169,17.169,0,0,0,8.951,7.3,22.734,22.734,0,0,0,5.592,9.124,1.268,1.268,0,0,0,1.793-1.793,20.275,20.275,0,0,1-4.326-6.383,30.55,30.55,0,0,0,7.124.8,33.268,33.268,0,0,0,12.08-2.2q-.472.7-.993,1.443c-.6.862-1.221,1.754-1.791,2.629-3.826,5.874-5.894,9.928-5.143,13.264a9.969,9.969,0,0,0,4.69,5.907,15.576,15.576,0,0,0,8.115,2.412,10.77,10.77,0,0,0,9.7-5.512c2.947-5.1,2.8-11.693-.4-18.552A34.09,34.09,0,0,0,37.71,72.165c.586.044,1.175.094,1.758.143,1.047.089,2.129.181,3.171.236,1.811.1,3.326.145,4.633.145a28.762,28.762,0,0,0,5-.357,20.547,20.547,0,0,1,.313,3.578,20.256,20.256,0,0,1-1.06,6.474,1.268,1.268,0,1,0,2.4.809Zm-33.2-1.048a26.764,26.764,0,0,1-8.108-1.167A20.4,20.4,0,0,1,13.2,69.018a1.268,1.268,0,1,0-2.385-.861,22.765,22.765,0,0,0-1.357,7.754,23.12,23.12,0,0,0,.333,3.917A14.047,14.047,0,0,1,3.8,74.364a8.252,8.252,0,0,1,.077-8.621c1.968-3.409,5.936-5.98,9.229-5.98a4.8,4.8,0,0,1,1.427.2c2.1.655,4.11,3.315,7.41,9.814.455.9.908,1.861,1.347,2.795,1.587,3.378,3.212,6.838,5.572,8.539A32.721,32.721,0,0,1,20.734,82.146Zm11.556-2.6a3.636,3.636,0,0,1-3.632-3.632c0-.052,0-.1,0-.154,0-.022,0-.044,0-.066,0-.04.005-.08.009-.12,0-.019,0-.039.006-.058a3.632,3.632,0,1,1,3.609,4.03Zm5.82-1.455a8.479,8.479,0,0,0,.4-1.823,32.593,32.593,0,0,1,6.188,8.886c1.648,3.525,3.9,10.318.5,16.21a8.252,8.252,0,0,1-7.5,4.244,12.972,12.972,0,0,1-6.756-2.017,7.617,7.617,0,0,1-3.576-4.323c-.483-2.147.816-5.216,4.794-11.324.549-.842,1.158-1.718,1.748-2.565A31.245,31.245,0,0,0,38.11,78.088ZM48.437,59.763a1.268,1.268,0,1,0-1.793,1.793,20.2,20.2,0,0,1,5.033,8.307,26.988,26.988,0,0,1-4.4.29c-1.261,0-2.731-.046-4.5-.141-1-.054-2.066-.144-3.093-.231-1.7-.144-3.457-.293-5.079-.293a12.267,12.267,0,0,0-5.116.861,32.584,32.584,0,0,1,4.6-9.8c2.229-3.189,6.984-8.54,13.787-8.54,5.1,0,7.312,3.726,8.179,5.947,1.513,3.874,1.031,8.605-1.076,10.547a4.143,4.143,0,0,1-.879.612A22.728,22.728,0,0,0,48.437,59.763Z" transform="translate(-0.08 -43.197)" fill="#09f"/>
  </g>
</svg>
